<svg id="add-cart-icon" xmlns="http://www.w3.org/2000/svg" width="20" height="20" viewBox="0 0 20 20">
  <path id="Path_2074" data-name="Path 2074" d="M9.333-16.333H11v-2.5h2.5V-20.5H11V-23H9.333v2.5h-2.5v1.667h2.5ZM6-8.833A1.664,1.664,0,0,0,4.342-7.167,1.664,1.664,0,0,0,6-5.5,1.672,1.672,0,0,0,7.667-7.167,1.672,1.672,0,0,0,6-8.833Zm8.333,0a1.664,1.664,0,0,0-1.658,1.667A1.664,1.664,0,0,0,14.333-5.5,1.672,1.672,0,0,0,16-7.167,1.672,1.672,0,0,0,14.333-8.833ZM6.917-13h6.208a1.659,1.659,0,0,0,1.458-.858L17.8-19.7l-1.458-.8-3.217,5.833H7.275l-3.55-7.5H1V-20.5H2.667l3,6.325L4.542-12.142A1.67,1.67,0,0,0,6-9.667H16v-1.667H6Z" transform="translate(-0.167 23.833)" fill="#6c3298"/>
  <rect id="Box" width="20" height="20" fill="none"/>
</svg>
