<svg id="Inst-icon" xmlns="http://www.w3.org/2000/svg" xmlns:xlink="http://www.w3.org/1999/xlink" width="25" height="25.001" viewBox="0 0 25 25.001">
  <defs>
    <radialGradient id="radial-gradient" cx="0.133" cy="1.005" r="1.305" gradientTransform="translate(0)" gradientUnits="objectBoundingBox">
      <stop offset="0.09" stop-color="#fa8f21"/>
      <stop offset="0.78" stop-color="#d82d7e"/>
    </radialGradient>
    <radialGradient id="radial-gradient-2" cx="0.606" cy="1.05" r="1.029" gradientTransform="translate(0)" gradientUnits="objectBoundingBox">
      <stop offset="0.64" stop-color="#8c3aaa" stop-opacity="0"/>
      <stop offset="1" stop-color="#8c3aaa"/>
    </radialGradient>
  </defs>
  <path id="Path_2126" data-name="Path 2126" d="M8.334,12.5A4.167,4.167,0,1,1,12.5,16.668,4.167,4.167,0,0,1,8.334,12.5m-2.253,0A6.419,6.419,0,1,0,12.5,6.082,6.419,6.419,0,0,0,6.082,12.5M17.673,5.827a1.5,1.5,0,1,0,1.5-1.5h0a1.5,1.5,0,0,0-1.5,1.5M7.45,22.676a6.909,6.909,0,0,1-2.321-.43,3.885,3.885,0,0,1-1.438-.935,3.857,3.857,0,0,1-.935-1.437,6.9,6.9,0,0,1-.43-2.321c-.061-1.318-.073-1.713-.073-5.052s.013-3.733.073-5.052a6.955,6.955,0,0,1,.43-2.321A3.885,3.885,0,0,1,3.691,3.69a3.853,3.853,0,0,1,1.438-.935,6.9,6.9,0,0,1,2.321-.43c1.318-.061,1.713-.073,5.05-.073s3.733.013,5.052.073a6.955,6.955,0,0,1,2.321.43,3.873,3.873,0,0,1,1.438.935,3.873,3.873,0,0,1,.935,1.438,6.9,6.9,0,0,1,.43,2.321c.061,1.319.073,1.713.073,5.052s-.012,3.733-.073,5.052a6.935,6.935,0,0,1-.43,2.321,4.139,4.139,0,0,1-2.373,2.372,6.9,6.9,0,0,1-2.321.43c-1.318.061-1.713.073-5.052.073s-3.733-.012-5.05-.073m-.1-22.6A9.166,9.166,0,0,0,4.313.656,6.131,6.131,0,0,0,2.1,2.1,6.108,6.108,0,0,0,.656,4.313,9.169,9.169,0,0,0,.076,7.347C.014,8.68,0,9.106,0,12.5s.014,3.821.076,5.154a9.168,9.168,0,0,0,.581,3.034A6.111,6.111,0,0,0,2.1,22.9a6.146,6.146,0,0,0,2.214,1.442,9.174,9.174,0,0,0,3.034.581C8.68,24.986,9.106,25,12.5,25s3.821-.014,5.154-.076a9.168,9.168,0,0,0,3.034-.581,6.391,6.391,0,0,0,3.656-3.656,9.143,9.143,0,0,0,.581-3.034C24.986,16.32,25,15.9,25,12.5s-.014-3.821-.075-5.154a9.166,9.166,0,0,0-.581-3.034A6.147,6.147,0,0,0,22.9,2.1,6.117,6.117,0,0,0,20.689.656,9.154,9.154,0,0,0,17.655.076C16.322.015,15.9,0,12.5,0S8.68.014,7.347.076" fill="url(#radial-gradient)"/>
  <path id="Path_2127" data-name="Path 2127" d="M8.334,12.5A4.167,4.167,0,1,1,12.5,16.668,4.167,4.167,0,0,1,8.334,12.5m-2.253,0A6.419,6.419,0,1,0,12.5,6.082,6.419,6.419,0,0,0,6.082,12.5M17.673,5.827a1.5,1.5,0,1,0,1.5-1.5h0a1.5,1.5,0,0,0-1.5,1.5M7.45,22.676a6.909,6.909,0,0,1-2.321-.43,3.885,3.885,0,0,1-1.438-.935,3.857,3.857,0,0,1-.935-1.437,6.9,6.9,0,0,1-.43-2.321c-.061-1.318-.073-1.713-.073-5.052s.013-3.733.073-5.052a6.955,6.955,0,0,1,.43-2.321A3.885,3.885,0,0,1,3.691,3.69a3.853,3.853,0,0,1,1.438-.935,6.9,6.9,0,0,1,2.321-.43c1.318-.061,1.713-.073,5.05-.073s3.733.013,5.052.073a6.955,6.955,0,0,1,2.321.43,3.873,3.873,0,0,1,1.438.935,3.873,3.873,0,0,1,.935,1.438,6.9,6.9,0,0,1,.43,2.321c.061,1.319.073,1.713.073,5.052s-.012,3.733-.073,5.052a6.935,6.935,0,0,1-.43,2.321,4.139,4.139,0,0,1-2.373,2.372,6.9,6.9,0,0,1-2.321.43c-1.318.061-1.713.073-5.052.073s-3.733-.012-5.05-.073m-.1-22.6A9.166,9.166,0,0,0,4.313.656,6.131,6.131,0,0,0,2.1,2.1,6.108,6.108,0,0,0,.656,4.313,9.169,9.169,0,0,0,.076,7.347C.014,8.68,0,9.106,0,12.5s.014,3.821.076,5.154a9.168,9.168,0,0,0,.581,3.034A6.111,6.111,0,0,0,2.1,22.9a6.146,6.146,0,0,0,2.214,1.442,9.174,9.174,0,0,0,3.034.581C8.68,24.986,9.106,25,12.5,25s3.821-.014,5.154-.076a9.168,9.168,0,0,0,3.034-.581,6.391,6.391,0,0,0,3.656-3.656,9.143,9.143,0,0,0,.581-3.034C24.986,16.32,25,15.9,25,12.5s-.014-3.821-.075-5.154a9.166,9.166,0,0,0-.581-3.034A6.147,6.147,0,0,0,22.9,2.1,6.117,6.117,0,0,0,20.689.656,9.154,9.154,0,0,0,17.655.076C16.322.015,15.9,0,12.5,0S8.68.014,7.347.076" fill="url(#radial-gradient-2)"/>
</svg>
