<svg id="Log_in" data-name="Log in" xmlns="http://www.w3.org/2000/svg" width="24" height="24" viewBox="0 0 24 24">
  <g id="Icon_Circle_Outlined" data-name="Icon / Circle / Outlined" opacity="1">
    <rect id="Box" width="24" height="24" fill="none"/>
    <path id="Path_2104" data-name="Path 2104" d="M10,9a1.5,1.5,0,1,1,1.5-1.5A1.538,1.538,0,0,1,10,9Zm0-5A3.543,3.543,0,0,0,6.5,7.5a3.5,3.5,0,0,0,7,0A3.543,3.543,0,0,0,10,4Zm6.4,10.8c-1.4-1.7-4.9-2.3-6.4-2.3s-4.9.6-6.4,2.3A7.913,7.913,0,0,1,2,10a8,8,0,0,1,16,0A7.913,7.913,0,0,1,16.4,14.8ZM5.1,16.3c.4-.9,3-1.8,4.9-1.8s4.5.9,4.9,1.8A7.481,7.481,0,0,1,10,18,7.481,7.481,0,0,1,5.1,16.3ZM10,0A10,10,0,1,0,20,10,10.029,10.029,0,0,0,10,0Z" transform="translate(2 2)"/>
  </g>
</svg>
