<svg id="Logo_-_White_-_30x30" data-name="Logo - White - 30x30" xmlns="http://www.w3.org/2000/svg" width="30.006" height="30" viewBox="0 0 30.006 30">
  <path id="Logo-icon-01" d="M30.006,15A15,15,0,1,0,14.763,30h.48A15.016,15.016,0,0,0,30.006,15Zm-10.814,10.5a4.2,4.2,0,0,0-8.378,0,4.543,4.543,0,1,1,8.378,0ZM15,17.481A6.259,6.259,0,0,0,8.99,25.5a7.882,7.882,0,1,1,12.026-.006A6.254,6.254,0,0,0,15,17.481ZM24.6,20.4a9.6,9.6,0,0,0-19.2,0,9.516,9.516,0,0,0,1.464,5.089,13.281,13.281,0,1,1,16.275,0A9.569,9.569,0,0,0,24.6,20.4Zm-9.728,7.88a2.478,2.478,0,1,1,.252,0c-.042,0-.084.006-.126.006S14.919,28.284,14.877,28.284Z" fill="#f9fbfc"/>
</svg>
