<svg id="tiktok-1" xmlns="http://www.w3.org/2000/svg" width="21.359" height="24.5" viewBox="0 0 21.359 24.5">
  <path id="Path_2130" data-name="Path 2130" d="M8.795,15v-.934A8.229,8.229,0,0,0,7.75,14,7.523,7.523,0,0,0,0,21.254a7.127,7.127,0,0,0,3.309,5.938,6.979,6.979,0,0,1-2.081-4.938A7.508,7.508,0,0,1,8.795,15" transform="translate(0 -5.205)" fill="#00f2ea"/>
  <path id="Path_2131" data-name="Path 2131" d="M12.718,20.1a3.345,3.345,0,0,0,3.347-3.208l.006-15.889h2.921A5.478,5.478,0,0,1,18.9,0H14.908L14.9,15.889A3.35,3.35,0,0,1,10,18.713a3.355,3.355,0,0,0,2.719,1.39M24.448,6.4V5.516a5.54,5.54,0,0,1-3.022-.893A5.56,5.56,0,0,0,24.448,6.4" transform="translate(-3.718)" fill="#00f2ea"/>
  <path id="Path_2132" data-name="Path 2132" d="M20.192,5.592A5.421,5.421,0,0,1,18.83,2H17.764a5.487,5.487,0,0,0,2.428,3.592m-9.847,7.756A3.3,3.3,0,0,0,8.793,19.59a3.267,3.267,0,0,1-.633-1.93A3.334,3.334,0,0,1,12.492,14.5V10.481a7.363,7.363,0,0,0-.988-.072c-.058,0-.115,0-.172,0V13.5a3.321,3.321,0,0,0-.988-.153" transform="translate(-2.603 -0.744)" fill="#ff004f"/>
  <path id="Path_2133" data-name="Path 2133" d="M22.058,11v3.068A9.517,9.517,0,0,1,16.521,12.3v8.02A7.329,7.329,0,0,1,5,26.27a7.331,7.331,0,0,0,12.682-4.945V13.3a9.517,9.517,0,0,0,5.536,1.765V11.123A5.572,5.572,0,0,1,22.058,11" transform="translate(-1.859 -4.09)" fill="#ff004f"/>
  <path id="Path_2134" data-name="Path 2134" d="M15.807,16.713V8.679a9.889,9.889,0,0,0,5.667,1.769V7.376A5.706,5.706,0,0,1,18.389,5.6,5.5,5.5,0,0,1,15.9,2H12.921l-.006,15.84a3.381,3.381,0,0,1-3.417,3.2,3.455,3.455,0,0,1-2.777-1.385,3.312,3.312,0,0,1-1.834-2.941A3.378,3.378,0,0,1,8.31,13.389a3.465,3.465,0,0,1,1.01.154v-3.1A7.39,7.39,0,0,0,2,17.715a7.131,7.131,0,0,0,2.013,4.953,7.611,7.611,0,0,0,4.3,1.319,7.4,7.4,0,0,0,7.5-7.275" transform="translate(-0.744 -0.744)" fill="#fff"/>
</svg>
