<svg id="tiktok-icon" xmlns="http://www.w3.org/2000/svg" width="36.049" height="24.936" viewBox="0 0 36.049 24.936">
  <path id="Path_2129" data-name="Path 2129" d="M269.746,584.529l-7.4-.135a38.606,38.606,0,0,1-7.143-.441c-3.571-.73-3.824-4.307-4.089-7.308a51.262,51.262,0,0,1,.465-12.7,4.341,4.341,0,0,1,4.283-3.9,236.679,236.679,0,0,1,23.988-.229,17.313,17.313,0,0,1,2.518.3c4.1.718,4.2,4.772,4.461,8.184a46.4,46.4,0,0,1-.353,10.338c-.406,2.835-1.183,5.213-4.461,5.443-4.107.3-8.12.542-12.238.465C269.781,584.529,269.758,584.529,269.746,584.529Zm-4.348-7.178c3.095-1.777,6.131-3.524,9.208-5.289-3.1-1.777-6.131-3.524-9.208-5.289Z" transform="translate(-250.923 -559.625)" fill="red"/>
</svg>
