<svg id="Track_order" data-name="Track order" xmlns="http://www.w3.org/2000/svg" width="24" height="24" viewBox="0 0 24 24">
  <g id="Icon_Location_On_Outlined" data-name="Icon / Location On / Outlined" opacity="0.5">
    <rect id="Box" width="24" height="24" fill="none"/>
    <path id="Path_2083" data-name="Path 2083" d="M7,0A6.957,6.957,0,0,0,0,7c0,5.2,7,13,7,13s7-7.8,7-13A6.957,6.957,0,0,0,7,0ZM2,7A4.951,4.951,0,0,1,7,2a4.951,4.951,0,0,1,5,5c0,2.9-2.9,7.2-5,9.9C4.9,14.2,2,9.8,2,7ZM9.5,7A2.5,2.5,0,1,1,7,4.5,2.476,2.476,0,0,1,9.5,7Z" transform="translate(5 2)"/>
  </g>
</svg>
