<svg id="Wishlist" xmlns="http://www.w3.org/2000/svg" width="24" height="24" viewBox="0 0 24 24">
  <g id="Icon_Favorite_Outlined" data-name="Icon / Favorite / Outlined" opacity="1">
    <rect id="Box" width="24" height="24" fill="none"/>
    <path id="Path_2085" data-name="Path 2085" d="M155.1,17.9l-.1.1-.1-.1c-4.8-4.3-7.9-7.2-7.9-10.1a3.418,3.418,0,0,1,3.5-3.5,4.062,4.062,0,0,1,3.6,2.4H156a3.847,3.847,0,0,1,3.6-2.4,3.418,3.418,0,0,1,3.5,3.5C163,10.7,159.9,13.6,155.1,17.9Zm4.4-15.6A6.01,6.01,0,0,0,155,4.4a6.01,6.01,0,0,0-4.5-2.1A5.422,5.422,0,0,0,145,7.8c0,3.8,3.4,6.9,8.6,11.5l1.4,1.3,1.4-1.3c5.2-4.7,8.6-7.8,8.6-11.5A5.484,5.484,0,0,0,159.5,2.3Z" transform="translate(-143 1)"/>
  </g>
</svg>
